<svg width="40" height="40" viewBox="0 0 40 40" fill="none" xmlns="http://www.w3.org/2000/svg">
<rect width="40" height="40" rx="10" fill="#FFD7BF" fill-opacity="0.28"/>
<path d="M29.3359 21.75H29.5312C29.8047 21.2031 29.9609 20.5781 30 19.875C30 18.5859 29.4141 17.4531 28.5156 16.6328C27.9297 14.5625 26.0156 13 23.75 13C23.5938 13 23.4375 13.0391 23.3203 13.0781C22.6172 11.5547 21.1328 10.5 19.375 10.5C17.6172 10.5 16.0938 11.5547 15.3906 13.0781C15.2734 13.0391 15.1172 13 15 13C12.2266 13 10 15.2656 10 18C10 19.5234 10.6641 20.8516 11.7188 21.75H10.625C10.2734 21.75 9.96094 22.0625 10 22.4141C10.2344 25.4219 12.2656 27.8828 15 28.8203V29.25C15 29.9531 15.5469 30.5 16.25 30.5H23.75C24.4531 30.5 25 29.9531 25 29.25V28.8203C27.6953 27.8438 29.7266 25.3828 29.9609 22.4141C30 22.0625 29.7266 21.75 29.3359 21.75ZM28.75 19.875C28.7109 20.6172 28.4766 21.2422 28.0859 21.75H23.125C22.7344 21.2422 22.5 20.6172 22.5 19.875C22.5 18.1562 23.8672 16.75 25.625 16.75C27.3438 16.75 28.75 18.1562 28.75 19.875ZM11.25 18C11.25 16.6328 12.1484 13.9375 16.25 14.25C17.3047 11.7891 18.7891 11.75 19.375 11.75C19.9219 11.75 21.4062 11.75 22.5 14.25C23.8672 14.1719 25.4688 14.2109 26.6406 15.6562C26.2891 15.5781 25.9375 15.5391 25.625 15.5C23.2031 15.5391 21.25 17.4922 21.25 19.875C21.25 20.5781 21.4062 21.2031 21.6797 21.75H20V14.5625C20 14.4062 19.8438 14.25 19.6875 14.25H19.0625C18.8672 14.25 18.75 14.4062 18.75 14.5625V20.8906L14.4141 16.5547C14.3359 16.4766 14.2578 16.4766 14.1797 16.4766C14.1016 16.4766 14.0234 16.4766 13.9453 16.5547L13.5156 16.9844C13.4375 17.0625 13.3984 17.1406 13.3984 17.2188C13.3984 17.2969 13.4375 17.375 13.5156 17.4141L17.8516 21.75H15C12.9297 21.75 11.25 20.0703 11.25 18ZM24.5703 27.6484L23.75 27.9219V29.25H16.25V27.9219L15.3906 27.6484C13.3203 26.9062 11.7578 25.1484 11.3281 23H28.6328C28.2031 25.1484 26.6797 26.9062 24.5703 27.6484Z" fill="#FF7800"/>
</svg>
