<svg width="43" height="40" viewBox="0 0 43 40" fill="none" xmlns="http://www.w3.org/2000/svg">
<rect width="43" height="40" rx="10" fill="#FFD7BF" fill-opacity="0.28"/>
<path d="M30.0781 11.75C29.1406 11.7891 24.4531 12.1016 21.5234 13.6641C21.3672 13.7422 21.0938 13.7422 20.9375 13.6641C18.0078 12.1016 13.3203 11.7891 12.3828 11.75C11.0547 11.75 10 12.8047 10 14.0938V25.6562C10 26.9062 10.9766 27.8828 12.2266 27.9609C13.5938 28.0391 16.9922 28.2734 19.3359 29.1328C19.5703 29.2109 19.7656 29.25 19.9609 29.25H22.4609C22.6953 29.25 22.8906 29.2109 23.125 29.1328C25.4688 28.2734 28.8672 28.0391 30.2344 27.9609C31.4844 27.8828 32.4609 26.9062 32.4609 25.6562V14.0938C32.5 12.8047 31.4062 11.75 30.0781 11.75ZM20.625 27.4141C20.625 27.7656 20.3125 28.0391 20 28.0391C19.9219 28.0391 19.8828 28 19.8047 28C17.3438 27.0625 13.9844 26.7891 12.3047 26.7109C11.7188 26.6719 11.25 26.2422 11.25 25.6562V14.0938C11.25 13.5078 11.7578 13.0391 12.3828 13.0391C13.125 13.0391 17.1484 13.3125 19.8828 14.5234C20.3125 14.7188 20.5859 15.1484 20.5859 15.6172L20.625 19.5234V27.4141ZM31.25 25.6562C31.25 26.2422 30.7422 26.6719 30.1562 26.7109C28.4766 26.7891 25.1172 27.0625 22.6562 28C22.5781 28 22.5391 28.0391 22.4609 28.0391C22.1484 28.0391 21.8359 27.7656 21.8359 27.4141V19.5234L21.875 15.6172C21.875 15.1484 22.1484 14.7188 22.5781 14.5234C25.3125 13.3125 29.3359 13.0391 30.0781 13.0391C30.7031 13.0391 31.2109 13.5078 31.2109 14.0938V25.6562H31.25Z" fill="#FF7800"/>
</svg>
