<svg width="40" height="40" viewBox="0 0 40 40" fill="none" xmlns="http://www.w3.org/2000/svg">
<rect width="40" height="40" rx="10" fill="#FFD7BF" fill-opacity="0.28"/>
<path d="M20 10.8125C14.6484 10.8125 10.3125 15.1484 10.3125 20.5C10.3125 25.8516 14.6484 30.1875 20 30.1875C25.3516 30.1875 29.6875 25.8516 29.6875 20.5C29.6875 15.1484 25.3516 10.8125 20 10.8125ZM28.4375 20.5C28.4375 25.1484 24.6484 28.9375 20 28.9375C15.3516 28.9375 11.5625 25.1875 11.5625 20.5C11.5625 15.8906 15.3125 12.0625 20 12.0625C24.6094 12.0625 28.4375 15.8516 28.4375 20.5ZM22.6172 23.9766C22.8125 24.1328 23.125 24.0547 23.2422 23.8594L23.5938 23.4297C23.75 23.1953 23.6719 22.9219 23.4766 22.7656L20.7422 20.7734V15.0312C20.7422 14.7969 20.5078 14.5625 20.2734 14.5625H19.7266C19.4531 14.5625 19.2578 14.7969 19.2578 15.0312V21.2812C19.2578 21.4375 19.2969 21.5547 19.4141 21.6719L22.6172 23.9766Z" fill="#FF7800"/>
</svg>
